# xmcd
# Track frame offsets:
# 183
# 14625
# 26318
# 40330
# 57048
# 76210
# 92345
# 104290
# 119028
# 134283
# 149645
# 168275
# 182295
# 196360
# 208258
# 223308
#
# Disc length: 3174 seconds
# Revision: 0
# Processed by: cddbd v1.5PL3 Copyright (c) Steve Scherf et al.
# Submitted via: VisiTrax 2.9.9.202 - For more info visit www.synapsa.com
#
DISCID=e30c6410
DTITLE=Bamse - 16 Gyldne Hits
DYEAR=1900
DGENRE=
TTITLE0=Er du langsom i nat
TTITLE1=Hugget sukker
TTITLE2=Ejer Bavnehøj
TTITLE3=Alt for længe til i morgen
TTITLE4=Tårer taler sandt
TTITLE5=Alice
TTITLE6=Mary's arme
TTITLE7=Endnu engang
TTITLE8=I en lille båd der gynger
TTITLE9=Alene i Verden
TTITLE10=Solen skinner
TTITLE11=Venner, kom og se
TTITLE12=Tænker altid på dig
TTITLE13=Hvorfor går Louise til bal
TTITLE14=Jeg har kun tre tænder
TTITLE15=Karneval
EXTD=
EXTT0=
EXTT1=
EXTT2=
EXTT3=
EXTT4=
EXTT5=
EXTT6=
EXTT7=
EXTT8=
EXTT9=
EXTT10=
EXTT11=
EXTT12=
EXTT13=
EXTT14=
EXTT15=
PLAYORDER=
